<svg viewBox="0 0 385 104" xmlns="http://www.w3.org/2000/svg"><path d="M117.4 22.22a5.921 5.921 0 0 1 4.37 1.84 6.131 6.131 0 0 1 1.82 4.47 6.06 6.06 0 0 1-1.8 4.42 5.85 5.85 0 0 1-4.31 1.83 5.941 5.941 0 0 1-4.4-1.86 6.231 6.231 0 0 1-1.82-4.52 6.17 6.17 0 0 1 6.15-6.17zm-4.84 21.05h9.68v40.36h-9.68zm42.1 6.39-6 6C146.22 53.22 144 52 142 52a4.17 4.17 0 0 0-2.55.69 2.08 2.08 0 0 0-.92 1.72c.003.536.21 1.051.58 1.44a10.893 10.893 0 0 0 2.89 1.82l3.55 1.77c3.733 1.847 6.3 3.727 7.7 5.64a11.74 11.74 0 0 1-1.68 15.32c-2.52 2.293-5.897 3.44-10.13 3.44A16.095 16.095 0 0 1 128 77.25l6-6.49a13.784 13.784 0 0 0 4 3.21 8.84 8.84 0 0 0 4 1.23 4.84 4.84 0 0 0 3.09-.92 2.67 2.67 0 0 0 1.17-2.13c0-1.493-1.407-2.947-4.22-4.36l-3.26-1.63c-6.24-3.147-9.36-7.083-9.36-11.81a10.249 10.249 0 0 1 3.53-7.82 12.811 12.811 0 0 1 9-3.25 15.66 15.66 0 0 1 12.7 6.38zm45.1 2.41-8.06 4.43a13.704 13.704 0 0 0-4.49-3.3 13.51 13.51 0 0 0-5.2-.92 12.121 12.121 0 0 0-8.79 3.24 11 11 0 0 0-3.36 8.3 10.67 10.67 0 0 0 3.23 8 11.71 11.71 0 0 0 8.49 3.18c4.333 0 7.707-1.477 10.12-4.43l7.64 5.23c-4.14 5.38-9.98 8.07-17.52 8.07-6.787 0-12.1-2-15.94-6A20.05 20.05 0 0 1 170.732 46a23.354 23.354 0 0 1 11.27-2.73 22.75 22.75 0 0 1 10.32 2.29 19.592 19.592 0 0 1 7.44 6.51zm23.85-8.8A20.46 20.46 0 0 1 233.88 46a20 20 0 0 1 10.2 17.52 20.252 20.252 0 0 1-2.71 10.21 19.582 19.582 0 0 1-7.37 7.44 20.428 20.428 0 0 1-10.32 2.68 19.25 19.25 0 0 1-14.17-5.91 19.598 19.598 0 0 1-5.87-14.35c-.05-11.12 8.882-20.19 20-20.32zm.16 9.12a10.002 10.002 0 0 0-7.51 3.14 11.149 11.149 0 0 0-3 8 11.338 11.338 0 0 0 3 8.16 9.91 9.91 0 0 0 7.51 3.12 10.001 10.001 0 0 0 7.57-3.16 11.27 11.27 0 0 0 3-8.12 11.19 11.19 0 0 0-3-8.07 10.001 10.001 0 0 0-7.57-3.07zM250 44.27h9.79v18.58a25.829 25.829 0 0 0 .74 7.54 6.582 6.582 0 0 0 2.4 3.28 6.86 6.86 0 0 0 4.07 1.17 7.088 7.088 0 0 0 4.11-1.15 6.76 6.76 0 0 0 2.51-3.39c.4-1.113.6-3.49.6-7.13v-18.9h9.68v16.35c0 6.74-.533 11.35-1.6 13.83a15.099 15.099 0 0 1-5.75 7 17.606 17.606 0 0 1-9.65 2.43c-4.233 0-7.657-.947-10.27-2.84a15 15 0 0 1-5.51-7.91c-.747-2.36-1.12-6.627-1.12-12.8zm40.31 0h8.3v4.86a10.376 10.376 0 0 1 3.58-4.36 8.653 8.653 0 0 1 4.89-1.49c1.372.028 2.72.37 3.94 1l-3 8.34a6.66 6.66 0 0 0-2.8-.85c-1.493 0-2.753.923-3.78 2.77s-1.54 5.463-1.54 10.85v17.47h-9.61zm48.12 5.39-6 6c-2.433-2.44-4.643-3.66-6.63-3.66a4.17 4.17 0 0 0-2.55.69 2.08 2.08 0 0 0-.92 1.72c.003.536.21 1.051.58 1.44a10.925 10.925 0 0 0 2.89 1.79l3.55 1.77c3.733 1.847 6.3 3.727 7.7 5.64 3.335 4.812 2.619 11.35-1.68 15.32-2.52 2.293-5.897 3.44-10.13 3.44a16.1 16.1 0 0 1-13.48-6.6l6-6.49a13.77 13.77 0 0 0 4 3.21 8.855 8.855 0 0 0 4.06 1.22 4.84 4.84 0 0 0 3.09-.92 2.672 2.672 0 0 0 1.09-2.08c0-1.493-1.407-2.947-4.22-4.36l-3.26-1.63c-6.24-3.147-9.36-7.083-9.36-11.81a10.249 10.249 0 0 1 3.53-7.82 12.82 12.82 0 0 1 9-3.25 15.66 15.66 0 0 1 12.7 6.38zm45.99 16.7h-31.1a10.348 10.348 0 0 0 3.6 6.54 11.304 11.304 0 0 0 7.47 2.43 12.9 12.9 0 0 0 9.33-3.79l8.16 3.83a19.262 19.262 0 0 1-7.31 6.4 22.848 22.848 0 0 1-10.11 2.07c-6.053 0-10.98-1.91-14.79-5.73A19.491 19.491 0 0 1 344 63.78a20.157 20.157 0 0 1 5.69-14.67 19.121 19.121 0 0 1 14.28-5.83c6.073 0 11.02 1.943 14.83 5.83s5.717 9.023 5.71 15.41zm-9.68-7.63a9.713 9.713 0 0 0-3.74-5.24 10.999 10.999 0 0 0-6.55-2 11.591 11.591 0 0 0-7.11 2.27 12.637 12.637 0 0 0-3.55 5zM51.84 0C23.68 0-.03 22.83-.03 51v52.81l51.86-.05c28.16 0 51-23.71 51-51.87S79.97 0 51.84 0z"/><path d="M52.37 19.74a31.62 31.62 0 0 0-27.79 46.67l-5.72 18.4 20.54-4.64a31.61 31.61 0 0 0 42.312-40.613c-4.811-11.97-16.41-19.82-29.31-19.82z" fill="#fff9ae"/><path d="M77.09 70.91c-8.979 11.33-24.5 15.12-37.69 9.206l-20.54 4.7 20.91-2.47c13.86 8.12 31.61 4.547 41.25-8.304s8.104-30.89-3.571-41.93c8.765 11.49 8.616 27.47-.363 38.79z" fill="#00aeef"/><path d="M75.32 64.91C67.573 77.11 52.54 82.5 38.8 78l-19.94 6.82 20.54-4.65c14.63 6.608 31.89 1.199 40.13-12.58 8.24-13.78 4.844-31.54-7.897-41.3 9.917 10.51 11.44 26.42 3.689 38.62z" fill="#00a94f"/><path d="M26.47 67.11c-5.725-13.8-1.007-29.72 11.31-38.18 12.32-8.453 28.87-7.129 39.69 3.176-10.02-13.15-28.47-16.36-42.34-7.363-13.87 8.994-18.47 27.15-10.55 41.66l-5.72 18.4z" fill="#f15d22"/><path d="M24.58 66.41c-7.103-13.12-4.065-29.42 7.288-39.1 11.35-9.681 27.93-10.11 39.76-1.018-11.35-11.95-29.98-13.18-42.8-2.81s-15.52 28.84-6.202 42.44l-3.76 18.9z" fill="#d0232b"/></svg>